<mxfile host="app.diagrams.net" agent="Mozilla/5.0 (Windows NT 10.0; Win64; x64) AppleWebKit/537.36 (KHTML, like Gecko) Chrome/130.0.0.0 Safari/537.36 Edg/130.0.0.0" version="24.8.4">
  <diagram name="Страница — 1" id="ctf7hCThI7ifVCFrD-5f">
    <mxGraphModel dx="1106" dy="611" grid="1" gridSize="10" guides="1" tooltips="1" connect="1" arrows="1" fold="1" page="1" pageScale="1" pageWidth="827" pageHeight="1169" math="0" shadow="0">
      <root>
        <mxCell id="0" />
        <mxCell id="1" parent="0" />
        <mxCell id="4mJkHrHpWTqx8rz7CeoY-1" value="start" style="strokeWidth=2;html=1;shape=mxgraph.flowchart.start_1;whiteSpace=wrap;fontFamily=Times New Roman;fontSize=14;" parent="1" vertex="1">
          <mxGeometry x="40" y="40" width="120" height="80" as="geometry" />
        </mxCell>
        <mxCell id="4mJkHrHpWTqx8rz7CeoY-2" value="arr = calloc(n, sizeof(int))" style="rounded=1;whiteSpace=wrap;html=1;absoluteArcSize=1;arcSize=14;strokeWidth=2;fontFamily=Times New Roman;fontSize=14;" parent="1" vertex="1">
          <mxGeometry x="40" y="160" width="120" height="120" as="geometry" />
        </mxCell>
        <mxCell id="4mJkHrHpWTqx8rz7CeoY-3" value="arr == NULL" style="strokeWidth=2;html=1;shape=mxgraph.flowchart.decision;whiteSpace=wrap;fontFamily=Times New Roman;fontSize=14;" parent="1" vertex="1">
          <mxGeometry x="40" y="320" width="120" height="120" as="geometry" />
        </mxCell>
        <mxCell id="4mJkHrHpWTqx8rz7CeoY-4" value="free(arr)&lt;div style=&quot;font-size: 14px;&quot;&gt;return nullptr&lt;/div&gt;" style="rounded=1;whiteSpace=wrap;html=1;absoluteArcSize=1;arcSize=14;strokeWidth=2;fontFamily=Times New Roman;fontSize=14;" parent="1" vertex="1">
          <mxGeometry x="40" y="480" width="120" height="120" as="geometry" />
        </mxCell>
        <mxCell id="4mJkHrHpWTqx8rz7CeoY-5" value="" style="endArrow=classic;html=1;rounded=0;exitX=0.5;exitY=1;exitDx=0;exitDy=0;exitPerimeter=0;entryX=0.5;entryY=0;entryDx=0;entryDy=0;fontFamily=Times New Roman;fontSize=14;" parent="1" source="4mJkHrHpWTqx8rz7CeoY-1" target="4mJkHrHpWTqx8rz7CeoY-2" edge="1">
          <mxGeometry width="50" height="50" relative="1" as="geometry">
            <mxPoint x="390" y="320" as="sourcePoint" />
            <mxPoint x="440" y="270" as="targetPoint" />
          </mxGeometry>
        </mxCell>
        <mxCell id="4mJkHrHpWTqx8rz7CeoY-6" value="" style="endArrow=classic;html=1;rounded=0;exitX=0.5;exitY=1;exitDx=0;exitDy=0;entryX=0.5;entryY=0;entryDx=0;entryDy=0;entryPerimeter=0;fontFamily=Times New Roman;fontSize=14;" parent="1" source="4mJkHrHpWTqx8rz7CeoY-2" target="4mJkHrHpWTqx8rz7CeoY-3" edge="1">
          <mxGeometry width="50" height="50" relative="1" as="geometry">
            <mxPoint x="110" y="130" as="sourcePoint" />
            <mxPoint x="110" y="170" as="targetPoint" />
          </mxGeometry>
        </mxCell>
        <mxCell id="4mJkHrHpWTqx8rz7CeoY-7" value="" style="endArrow=classic;html=1;rounded=0;exitX=0.5;exitY=1;exitDx=0;exitDy=0;entryX=0.5;entryY=0;entryDx=0;entryDy=0;exitPerimeter=0;fontFamily=Times New Roman;fontSize=14;" parent="1" source="4mJkHrHpWTqx8rz7CeoY-3" target="4mJkHrHpWTqx8rz7CeoY-4" edge="1">
          <mxGeometry width="50" height="50" relative="1" as="geometry">
            <mxPoint x="110" y="290" as="sourcePoint" />
            <mxPoint x="110" y="330" as="targetPoint" />
          </mxGeometry>
        </mxCell>
        <mxCell id="4mJkHrHpWTqx8rz7CeoY-8" value="" style="verticalLabelPosition=bottom;verticalAlign=top;html=1;shape=hexagon;perimeter=hexagonPerimeter2;arcSize=6;size=0.27;strokeWidth=2;fontFamily=Times New Roman;fontSize=14;" parent="1" vertex="1">
          <mxGeometry x="280" y="480" width="120" height="80" as="geometry" />
        </mxCell>
        <mxCell id="4mJkHrHpWTqx8rz7CeoY-9" value="int* createIntArray(const int n)" style="text;html=1;align=center;verticalAlign=middle;whiteSpace=wrap;rounded=0;fontFamily=Times New Roman;fontSize=14;" parent="1" vertex="1">
          <mxGeometry x="5" y="10" width="190" height="30" as="geometry" />
        </mxCell>
        <mxCell id="4mJkHrHpWTqx8rz7CeoY-10" value="arr[i] = rand() % 10" style="rounded=1;whiteSpace=wrap;html=1;absoluteArcSize=1;arcSize=14;strokeWidth=2;fontFamily=Times New Roman;fontSize=14;" parent="1" vertex="1">
          <mxGeometry x="280" y="600" width="120" height="120" as="geometry" />
        </mxCell>
        <mxCell id="4mJkHrHpWTqx8rz7CeoY-11" value="" style="endArrow=classic;html=1;rounded=0;exitX=0.5;exitY=1;exitDx=0;exitDy=0;entryX=0.5;entryY=0;entryDx=0;entryDy=0;fontFamily=Times New Roman;fontSize=14;" parent="1" source="4mJkHrHpWTqx8rz7CeoY-8" target="4mJkHrHpWTqx8rz7CeoY-10" edge="1">
          <mxGeometry width="50" height="50" relative="1" as="geometry">
            <mxPoint x="370" y="480" as="sourcePoint" />
            <mxPoint x="420" y="430" as="targetPoint" />
          </mxGeometry>
        </mxCell>
        <mxCell id="4mJkHrHpWTqx8rz7CeoY-12" value="" style="endArrow=classic;html=1;rounded=0;exitX=0.5;exitY=1;exitDx=0;exitDy=0;entryX=0;entryY=0.5;entryDx=0;entryDy=0;fontFamily=Times New Roman;fontSize=14;" parent="1" source="4mJkHrHpWTqx8rz7CeoY-10" target="4mJkHrHpWTqx8rz7CeoY-8" edge="1">
          <mxGeometry width="50" height="50" relative="1" as="geometry">
            <mxPoint x="350" y="570" as="sourcePoint" />
            <mxPoint x="350" y="610" as="targetPoint" />
            <Array as="points">
              <mxPoint x="340" y="760" />
              <mxPoint x="240" y="760" />
              <mxPoint x="240" y="520" />
            </Array>
          </mxGeometry>
        </mxCell>
        <mxCell id="4mJkHrHpWTqx8rz7CeoY-13" value="" style="endArrow=classic;html=1;rounded=0;exitX=1;exitY=0.5;exitDx=0;exitDy=0;entryX=0.5;entryY=0;entryDx=0;entryDy=0;fontFamily=Times New Roman;fontSize=14;" parent="1" source="4mJkHrHpWTqx8rz7CeoY-8" target="4mJkHrHpWTqx8rz7CeoY-18" edge="1">
          <mxGeometry width="50" height="50" relative="1" as="geometry">
            <mxPoint x="350" y="570" as="sourcePoint" />
            <mxPoint x="340" y="800" as="targetPoint" />
            <Array as="points">
              <mxPoint x="440" y="520" />
              <mxPoint x="440" y="800" />
              <mxPoint x="340" y="800" />
            </Array>
          </mxGeometry>
        </mxCell>
        <mxCell id="4mJkHrHpWTqx8rz7CeoY-14" value="end" style="strokeWidth=2;html=1;shape=mxgraph.flowchart.start_1;whiteSpace=wrap;fontFamily=Times New Roman;fontSize=14;" parent="1" vertex="1">
          <mxGeometry x="40" y="1040" width="120" height="80" as="geometry" />
        </mxCell>
        <mxCell id="4mJkHrHpWTqx8rz7CeoY-15" value="" style="endArrow=classic;html=1;rounded=0;exitX=0.5;exitY=1;exitDx=0;exitDy=0;entryX=0.5;entryY=0;entryDx=0;entryDy=0;entryPerimeter=0;fontFamily=Times New Roman;fontSize=14;" parent="1" source="4mJkHrHpWTqx8rz7CeoY-4" target="4mJkHrHpWTqx8rz7CeoY-14" edge="1">
          <mxGeometry width="50" height="50" relative="1" as="geometry">
            <mxPoint x="110" y="450" as="sourcePoint" />
            <mxPoint x="110" y="490" as="targetPoint" />
          </mxGeometry>
        </mxCell>
        <mxCell id="4mJkHrHpWTqx8rz7CeoY-16" value="" style="endArrow=classic;html=1;rounded=0;exitX=1;exitY=0.5;exitDx=0;exitDy=0;entryX=0.5;entryY=0;entryDx=0;entryDy=0;exitPerimeter=0;fontFamily=Times New Roman;fontSize=14;" parent="1" source="4mJkHrHpWTqx8rz7CeoY-3" target="4mJkHrHpWTqx8rz7CeoY-8" edge="1">
          <mxGeometry width="50" height="50" relative="1" as="geometry">
            <mxPoint x="110" y="450" as="sourcePoint" />
            <mxPoint x="110" y="490" as="targetPoint" />
            <Array as="points">
              <mxPoint x="340" y="380" />
            </Array>
          </mxGeometry>
        </mxCell>
        <mxCell id="4mJkHrHpWTqx8rz7CeoY-17" value="i = 0; i &amp;lt; n;&lt;div style=&quot;font-size: 14px;&quot;&gt;i++&lt;/div&gt;" style="text;html=1;align=center;verticalAlign=middle;whiteSpace=wrap;rounded=0;fontFamily=Times New Roman;fontSize=14;" parent="1" vertex="1">
          <mxGeometry x="280" y="480" width="120" height="80" as="geometry" />
        </mxCell>
        <mxCell id="4mJkHrHpWTqx8rz7CeoY-18" value="return arr" style="rounded=1;whiteSpace=wrap;html=1;absoluteArcSize=1;arcSize=14;strokeWidth=2;fontFamily=Times New Roman;fontSize=14;" parent="1" vertex="1">
          <mxGeometry x="280" y="840" width="120" height="120" as="geometry" />
        </mxCell>
        <mxCell id="4mJkHrHpWTqx8rz7CeoY-19" value="" style="endArrow=classic;html=1;rounded=0;exitX=0.5;exitY=1;exitDx=0;exitDy=0;entryX=0.5;entryY=0;entryDx=0;entryDy=0;entryPerimeter=0;fontFamily=Times New Roman;fontSize=14;" parent="1" source="4mJkHrHpWTqx8rz7CeoY-18" target="4mJkHrHpWTqx8rz7CeoY-14" edge="1">
          <mxGeometry width="50" height="50" relative="1" as="geometry">
            <mxPoint x="110" y="450" as="sourcePoint" />
            <mxPoint x="110" y="490" as="targetPoint" />
            <Array as="points">
              <mxPoint x="340" y="1000" />
              <mxPoint x="100" y="1000" />
            </Array>
          </mxGeometry>
        </mxCell>
      </root>
    </mxGraphModel>
  </diagram>
</mxfile>
